<?xml version="1.0" standalone="no"?>
<!DOCTYPE svg PUBLIC "-//W3C//DTD SVG 20010904//EN"
 "http://www.w3.org/TR/2001/REC-SVG-20010904/DTD/svg10.dtd">
<svg version="1.0" xmlns="http://www.w3.org/2000/svg"
 width="256.000000pt" height="256.000000pt" viewBox="0 0 256.000000 256.000000"
 preserveAspectRatio="xMidYMid meet">
<metadata>
Created by potrace 1.16, written by Peter Selinger 2001-2019
</metadata>
<g transform="translate(0.000000,256.000000) scale(0.100000,-0.100000)"
fill="#000000" stroke="none">
<path d="M0 1280 l0 -1280 1280 0 1280 0 0 1280 0 1280 -922 -1 c-508 -1 -914
-3 -903 -5 11 -2 317 -38 680 -79 363 -42 669 -78 680 -82 31 -9 55 -34 55
-59 0 -19 -14 -27 -87 -56 l-88 -34 -3 -442 c-1 -243 0 -442 3 -442 2 0 38 14
80 30 42 17 80 30 85 30 6 0 10 -229 10 -634 0 -536 -2 -635 -14 -645 -8 -7
-47 -25 -86 -40 -49 -19 -75 -34 -83 -52 -9 -18 -22 -25 -50 -27 -21 -2 -359
54 -750 124 -657 117 -714 129 -734 151 l-23 24 0 1062 c0 938 2 1065 15 1084
10 15 48 33 113 53 53 17 99 33 101 36 2 2 -140 4 -317 4 l-322 0 0 -1280z"/>
<path d="M1522 1333 l3 -68 118 -21 c64 -11 119 -18 122 -16 3 3 5 39 5 80 0
72 -1 74 -23 68 -12 -3 -63 1 -112 9 -126 21 -116 25 -113 -52z"/>
</g>
</svg>
